<svg xmlns="http://www.w3.org/2000/svg" viewBox="0 0 552.1 506.7"><title>sama-logo</title><path d="M282.7,409.7c-11.5-2.1-23-3.8-34.3-6.5-26.3-6-52-14.1-75.2-28.4-15.5-9.5-31.6-18.5-45.3-30.2-18.3-15.8-34.9-33.4-48.5-54-16.7-25.1-26.8-52.1-35-80.8A203.7,203.7,0,0,1,36.5,152c0.1-13.6.5-27.8,4.6-40.5,7.8-24.4,12.3-50.4,26.6-72.2,11.7-17.9,22.5-36.6,39-51.2,12.8-11.3,24.3-23.9,38.5-33.7,24.2-16.7,49.9-29.9,78.1-38.6a322.2,322.2,0,0,1,50.9-11.6,5.3,5.3,0,0,0,1.8-1.3h73a11.1,11.1,0,0,0,2.9,1.7c16.3,3.4,32.9,5.7,48.9,10.2a248.1,248.1,0,0,1,70,32.4c16,10.6,31.5,22.1,44.9,36.4,22,23.4,42.1,48,53.1,78.5,6,16.6,14.7,32.4,17.1,50.3,0.7,5.6,1.8,11.1,2.7,16.6v54.8c-0.9,5.5-1.9,11-2.8,16.5-3,19.3-12.1,36.5-18.9,54.4-4,10.5-8.9,21.3-15.6,30.2-11.4,15-22,30.4-35.6,43.9-16.4,16.2-34.6,29.6-53.8,41.6a212.4,212.4,0,0,1-41,19.4c-17.7,6.4-36.2,10.9-54.4,15.8-7.2,1.9-14.7,2.8-22.1,4.1H282.7ZM345.1,9.2l21,6.9c35.7,11.8,63.1,34,82.5,66,4.5,7.4,6.4,16.3,10.8,23.8,9.1,15.4,10,32.7,9.9,49.4s-4.5,33.9-11.9,50.2c-14,30.9-34.6,54.7-64,71.5-35,20-72.5,26.5-111.9,20.3a158.1,158.1,0,0,1-95-51.8A144.1,144.1,0,0,1,159,200.1c-13.2-36.1-12.9-72.2,6.4-107.5,10-18.3,21.3-34.7,37.5-47.7,4.4-3.6,8.4-7.9,13.2-10.8,15.4-9,30.9-17.8,48.6-21.9,4-.9,7.9-2.4,10.6-3.2,2.8-4.8,4.6-8.5,6.9-11.8s5.6-7.2,8.4-10.8c-3.2-4.7-6.4-9.4-9.6-14-5.4-7.7-5.6-14.2-.2-21.8,3.7-5.1,7.8-10,11.5-14.8l-18-23.4c-2.6.2-6.8-.1-10.8,0.7-9.3,1.8-18.5,3.9-27.7,6.4-30.3,8.2-58.5,21-84,39.3-17.3,12.3-32.5,27-47.1,42.7C87.8,19.5,75.2,40.2,65.3,61.9c-18,39.4-21.4,81.9-16.9,124.8,4.2,39.8,19.5,75.6,43.3,107.4,13.3,17.7,27.9,34.3,46.2,47.9s37.9,26.2,59,36.1c29.6,13.9,60.8,21.5,93.1,23.9,29.9,2.3,59.9.7,89.3-6.8,37.2-9.4,71.9-24.2,102.2-47.9,12.2-9.5,23-20.9,34.6-31.2,18.3-16.1,28.7-37.8,40.7-58.2,10.5-17.8,13.9-38.4,19.1-58.3a188,188,0,0,0,5.7-52.5c-0.2-8.8-2.9-16.9-4.3-25.2-5.3-31.3-13-61.4-31.8-87.9C535.9,20.6,527,6.8,515.4-5.6s-24.3-22.7-37.5-32.8c-4.8-3.7-9.3-7.9-14.6-10.9-36.9-21-75.9-36-118.2-40L327.9-64l14.2,19.8v12.8L328.8-14.6ZM311.3,291c19.9,0.7,39.6-3.7,59.1-11.1,27.6-10.5,49.2-28.8,66.2-51.8s22.7-48.5,22.1-76.3c-0.7-32.5-9.4-61.3-32-86.3C412.7,50,396.9,38.4,379.1,29.1c-14.5-7.7-30.5-11-46.6-14.3a116.7,116.7,0,0,0-44.1-.5c-22.9,4.1-44.7,11.1-64.5,24.2S187,66.6,176.7,88c-5.2,10.9-8.5,22.7-13.1,33.9a73.6,73.6,0,0,0-5,40.9c1.6,9.9,4.8,19.6,7.6,29.3,11,38.1,36.4,64.1,70.6,82.1C259.7,286.4,284.4,291.7,311.3,291ZM308.8-17.5c14.9,0.1,23.8-7.9,23.9-21.2s-9-21.6-22.5-21.7-23,8.7-22.9,22.4S294.3-17.5,308.8-17.5ZM287.7-89.3c2,15.5,11.8,23.2,25.2,21.5s20-11,18.1-24.2C316.8-91.4,302.3-94.7,287.7-89.3ZM332,6.9C326.9-8.5,321.3-11.7,303.8-10c-9.2.9-13.9,5.9-15.3,16.9H332Z" transform="translate(-36.5 97)" style="fill:#fff"/><path d="M105.8,65.6L117,51.4c15.3,3.6,20.9,11.9,18.9,26.9-6.9,7.3-15.6,5.7-24.9,3.8l-3.5,8.6,12.7,2.5c1.5,9,1.3,18.3,0,28.6l-24-3.2-4.6,18.3,23.4,1.4,1.2,8.6-23.5,1.3v2.6l10.7,0.6,11,0.5c0.8,1.6,1.6,2.6,1.6,3.6s-0.4,2.9-.8,5.7H90.6v2.6c7.5,3.1,16-.2,24.4,2.3l1.5,8.2-26.3,1.4c1.2,8,.1,15.8,4.4,23.4l31.8-8.2,3.9,8.8c-14.3,6.8-29.2,8.9-44.8,13.3-13.2-47.4-5.7-91.7,12.6-135-5.7-8.2-12.8-15.7-8.9-27.4l7.7,1.7C98.9,57.3,97.1,64.7,105.8,65.6Zm4.5,36.8c-5.1-.3-9.5-1.7-11.5,5.1l12.5,1.3Zm5.9-29.8,9.2,0.6-4.9-8.4Z" transform="translate(-36.5 97)" style="fill:#fff"/><path d="M515,96l-18.3,3.8-4.1-8.7,17.7-6.6-1.2-6.9-21.7,6.3-5.3-8.6,20.5-7.9c-3.1-13.6-13.8-21-21.4-31.7L468.9,46.2l-6.2-5.8,11.4-16.1-4.4-3.6L454.5,33.4l-6.2-4.9c0.4-7.6,10.5-10.4,7.7-20.9L442.8,21.5,435,15.4,451.7-4.7c6.9,1.1,11.9,4.9,16.5,9.4,19.2,19,35.7,39.6,48.8,63.7,16.8,30.9,21.2,63.4,21.5,97.4a12.1,12.1,0,0,1-.5,3.4,8.5,8.5,0,0,1-1.1,1.9c-19.2,5-31.8.8-34.6-22.7l24.3-9.1-4-25.4-19.6,3.6-2.4-9.3,16.8-5.2Zm11.7,66.6-1.4-11.4-9.3,4V158Z" transform="translate(-36.5 97)" style="fill:#fff"/><path d="M474.8,252.8l20.8,12.8,7.6-14L493,243.9l4.5-7.8,11.8,4.7,7.1-18.4-30.3-15.7,5.4-8.2L531,216.8c-2.5,10.4-4.8,19.3-10.8,27-3.4,4.4-5.3,10-8.1,15-14.8,26.2-35.4,46.8-59.8,64.2a212.8,212.8,0,0,1-42.2,23.7l-5.2-7.8c17.5-12.4,38.2-18.5,51.1-35.7-15.9,4-28.9,13.7-43.5,21.8l-7-6.5c14.1-12.5,30.2-19.8,45.5-27.6l18,3.7,6.5-7.1-12.9-15C463.2,263,468.7,258.4,474.8,252.8Zm1.1,13.8c-1.6,5.2,1.2,7.2,4.1,8.5s4.1,0.4,6.2.6l0.4-2.1Z" transform="translate(-36.5 97)" style="fill:#fff"/><path d="M243.1,359.3l-3.5,3.9H209L207.5,353l21.6-1.5,1.8-16.5,9.1-.6,3.6,12,27,5.3-1.7-16.9h29.9c7.3,8-3.9,11.2-3.7,18.6,12.1,1.9,24.2,1,36.3.6V323.6l12.5-.9c1.5,14.4.9,27.9,0.7,42.5-17.4-.3-33.9,0-50.3-1S261.1,361.1,243.1,359.3Z" transform="translate(-36.5 97)" style="fill:#fff"/><path d="M130.2,255c20.7,35.3,51.1,59.3,84.9,79.8l-4.4,8.5c-2.5-1-4.7-1.5-6.5-2.6-39-23.8-72.1-53.2-93.7-97,16.9-1.7,31,.6,45.3,4.7,4,11.9,6.8,23.8,18.4,30.4-7.4,7.2-13.2,5.5-20.7,1l-5.6-20.9C142.3,253.6,136.2,254.8,130.2,255Z" transform="translate(-36.5 97)" style="fill:#fff"/><path d="M368.4-51h24.7l5,15c12.3,1.2,24.6-10,37.4-.7l-2.2,7.7-16.4.9,15.4,14.1c-10,13.6-17,16-32.3,11.7-5-6.2-5-6.2-7.1-23.4l-27.4,2C364.1-33.3,363.3-41.9,368.4-51Zm38.5,31.4c-0.1,7.3,2,9.6,7.2,8,0.7-.2,1.1-1.6,1.9-2.9ZM384.6-37.2l0.2-2.8-5-.4v4.6Z" transform="translate(-36.5 97)" style="fill:#fff"/><path d="M154.5,6l-8.9-8.1c5.2-4.4,9.2-8.3,13.8-11.5a302.9,302.9,0,0,1,58.8-32c12.5-5.2,23.9-2.2,35.1,2.4,6.9,2.8,8.2,9.6,7.8,16.3s-4.8,13.7-11.3,13.7c-9.2,0-18.5-2.1-27.6-3.7-1.3-.2-2.3-2.6-4-4.6,9.3-5.9,19.1-1,28-3.5,0.5-.9,1.4-1.8,1.5-2.8a22.6,22.6,0,0,0-.2-4.5c-6.3-6.2-14.1-6.9-21.3-4.1-14,5.6-27.5,12.4-41.2,18.7l-0.8.9a2.5,2.5,0,0,0-1.5,1.4l-0.8.7-5.9,3.9-0.9.8-1.6,1.6-0.5.5-8.5,6.3-0.8.6-3.8,1.7-0.7.6-1.6,1.6-0.6.6a2.4,2.4,0,0,0-1.5,1.5Z" transform="translate(-36.5 97)" style="fill:#fff"/><path d="M185-17.6c4.6,0.3,9.4.4,10.3,6.8C186.6-3.9,178,3.3,169.1,10.1s-18.6,13-25.5,25.6C162,28,170.9,10.8,188.1,3.1l1.4,9.5L155.2,44.2H118.1L154.5,6l0.9-.8a2.9,2.9,0,0,0,1.5-1.5l0.6-.6,1.6-1.6,0.7-.6,3.8-1.7,0.8-.6,8.5-6.3,0.5-.5L175-9.9l0.9-.8,5.9-3.9,0.8-.7a2.1,2.1,0,0,0,1.5-1.4Z" transform="translate(-36.5 97)" style="fill:#fff"/><path d="M137,206.1l3.9,9c-14.7,4.7-28.5,9.9-43.7,12.5l-4-8.7A342.7,342.7,0,0,1,137,206.1Z" transform="translate(-36.5 97)" style="fill:#fff"/><path d="M540.9,197.4l-1.5,9.9c-15.3-4.2-28.6-10.4-42.6-18.1l3.7-8.8Z" transform="translate(-36.5 97)" style="fill:#fff"/><path d="M355.2,364.2c-3.1-14.3-2-26.9-1.6-40.2l7.6-1a112.4,112.4,0,0,1,3.5,40.1Z" transform="translate(-36.5 97)" style="fill:#fff"/><path d="M494.4,151.9l0.7,10.2-10.7,1L483.6,153Z" transform="translate(-36.5 97)" style="fill:#fff"/><path d="M466.3,252.9l-9.7,6.5-7.5-4.7,5.9-7.6Z" transform="translate(-36.5 97)" style="fill:#fff"/><path d="M388,3.7h10.5l0.6,10.1-8,.9Z" transform="translate(-36.5 97)" style="fill:#fff"/><path d="M471.8,234l6.5-7.2,7.6,5.4-5.4,8.1Z" transform="translate(-36.5 97)" style="fill:#fff"/><path d="M180.2,285.6l7,5-6.2,7.8-7.9-6.1Z" transform="translate(-36.5 97)" style="fill:#fff"/><path d="M444.8,273.5l-6.6-5.9,5.1-8.4,8.1,7.4Z" transform="translate(-36.5 97)" style="fill:#fff"/><path d="M494.7,138.9v7.5l-10,1.2-1.1-8.7h11.1Z" transform="translate(-36.5 97)" style="fill:#fff"/><path d="M258.2,218.3l-2.7-13.9c7.3-5.3,10.6-1.1,13.9,4h21.6c7.2,0,14.6-.5,21.5,5l6,10.3,8.3,0.9-6.4-7.1,2.3-8.2c11.4,5.1,20.8,10.8,25.3,22.3,2.3,6.1,2.2,6.3-3.3,14.3l-11.6-9.7H254.3L253,225.4c16.9-2.1,32.8-.1,48.8-1.4,0.2-5-2.8-5.5-5.9-5.6-7.6-.2-15.2-0.1-22.8-0.1H258.2Z" transform="translate(-36.5 97)" style="fill:#fff"/><path d="M287.5,176.1H229.6c-5.5-19.9,7-33.5,27.7-30.1l1.4,22.1c4.4-6.2,2.6-11,3-15.4s0.4-8.9.6-13.3c6.9-1.9,8.6,1.5,8.8,6.2,0.2,6.4.1,12.8,0.1,19.1h2.5V127.2l13.5-.6C287.9,143.4,287.8,159.1,287.5,176.1Zm-42.1-17.9-2.4-1.4-8.3,10.3,10.7-.7v-8.1Z" transform="translate(-36.5 97)" style="fill:#fff"/><path d="M275.4,54.1h10.4c3.4,8.4,1.5,16.8,1.8,25s0.1,16.7.1,24.7c-8.4,3.2-41.1,4-55.7,1.6-3.3-10-1.1-16.6,7.2-22.2L252.3,74l8.8,0.4,1.8,21.3,12.5,0.9V54.1ZM248,93l-1.3-1.4L243.1,95l1.3,1.4Z" transform="translate(-36.5 97)" style="fill:#fff"/><path d="M316.3,124.3l17.9,19.2,22.4-22.1,5.1,8-17.3,23.3,9.3,28.4H319.2l9.1-27-19.6-22.9Zm18.4,46.6,0.6,0.5,1.2-1.6-0.5-.4Z" transform="translate(-36.5 97)" style="fill:#fff"/><path d="M357.2,46.5l5.3,7.1L344.9,76.9l9.6,28.2c-11.5,2.4-21.7,1.5-33.6.7,1.3-5.4,2-9.7,3.3-13.8s3.2-7.7,5.3-12.4L309.6,56.4l7.4-5.6,18.5,16.9Zm-21.3,48h0.8l-0.2-1.9h-0.6v1.9Z" transform="translate(-36.5 97)" style="fill:#fff"/><path d="M374.1,239.4l-17.2-1.2c-6.9-12.4-3.4-25.8,7.7-31.7,7.6-4,14.3-2.2,18.2,5.4a46.8,46.8,0,0,1,4.8,27.6c-1.2,9.5-13,16.9-23.3,14.9-3.2-.6-6.2-2.3-10.2-3.8l3.7-8.7h16.1Zm-1.4-24.2c-7.1,2.4-8.3,6-8.1,11.7l11.7-.7Z" transform="translate(-36.5 97)" style="fill:#fff"/><path d="M243.8,203.5v32.1c-12.2,2.1-24.1.8-35.8,0.9C202.1,217.9,223.1,198.2,243.8,203.5Zm-9.5,22.4-0.5-11.2-2.4-1.1-13.7,12.3h16.6Z" transform="translate(-36.5 97)" style="fill:#fff"/><path d="M367.7,173.9V125.4l10.6-1.2c3.2,8.9,3.7,36.6,1.1,49.7H367.7Z" transform="translate(-36.5 97)" style="fill:#fff"/><path d="M300.5,103.4h-8.8c-0.5-16.2-.3-32,0.1-48.5l8.7-.9v49.4Z" transform="translate(-36.5 97)" style="fill:#fff"/><path d="M295.5,127.1h7.6c0.9,16.2.7,32.1,0.3,48.7l-7,.6C292.9,172.8,292.5,142.2,295.5,127.1Z" transform="translate(-36.5 97)" style="fill:#fff"/></svg>